<?xml version="1.0" encoding="UTF-8"?>
<svg xmlns="http://www.w3.org/2000/svg" xmlns:xlink="http://www.w3.org/1999/xlink" viewBox="0 0 163.34 130.4">
  <defs>
    <linearGradient id="linear-gradient" x1="46.49" y1="115.6" x2="115.86" y2="43.95" gradientUnits="userSpaceOnUse">
      <stop offset="0" stop-color="#ff0072"/>
      <stop offset=".44" stop-color="#ff5c00"/>
      <stop offset="1" stop-color="#ffce00"/>
    </linearGradient>
    <linearGradient id="linear-gradient-2" x1="50.9" y1="119.87" x2="120.27" y2="48.22" xlink:href="#linear-gradient"/>
    <linearGradient id="linear-gradient-3" x1="49.29" y1="118.31" x2="118.66" y2="46.66" xlink:href="#linear-gradient"/>
    <linearGradient id="linear-gradient-4" x1="41.9" y1="111.15" x2="111.27" y2="39.5" xlink:href="#linear-gradient"/>
    <linearGradient id="linear-gradient-5" x1="25.36" y1="95.14" x2="94.73" y2="23.49" xlink:href="#linear-gradient"/>
    <linearGradient id="linear-gradient-6" x1="11.86" y1="82.08" x2="81.23" y2="10.43" xlink:href="#linear-gradient"/>
    <linearGradient id="linear-gradient-7" x1="7.45" y1="77.8" x2="76.82" y2="6.15" xlink:href="#linear-gradient"/>
    <linearGradient id="linear-gradient-8" x1="9.07" y1="79.37" x2="78.44" y2="7.72" xlink:href="#linear-gradient"/>
    <linearGradient id="linear-gradient-9" x1="16.46" y1="86.52" x2="85.82" y2="14.87" xlink:href="#linear-gradient"/>
    <linearGradient id="linear-gradient-10" x1="32.99" y1="102.53" x2="102.36" y2="30.88" xlink:href="#linear-gradient"/>
  </defs>
  <g style="fill: none; isolation: isolate;">
    <g id="Layer_1" data-name="Layer 1">
      <g>
        <path d="m75.32,98.58s-.48-.14-1.37-.42c-.22-.07-.49-.14-.73-.23-.24-.08-.5-.17-.78-.27-.55-.2-1.25-.42-1.84-.68-.62-.25-1.34-.53-2.06-.84-.33-.16-.68-.31-1.05-.48-.36-.17-.68-.34-1.04-.51-1.39-.71-2.79-1.51-3.96-2.38-1.25-.87-2.27-1.82-3.09-2.81-.83-1-1.39-2.05-1.27-3.14.05-.55.27-1.1.6-1.66.34-.56.81-1.13,1.29-1.7.99-1.14,1.95-2.31,2.52-3.47.6-1.16,1.15-2.32,1.79-3.47.63-1.14,1.32-2.27,2.03-3.36.74-1.09,1.41-2.14,2.13-3.14.35-.5.69-.99,1.03-1.46.35-.47.69-.92,1.01-1.36.32-.44.64-.85.96-1.25.31-.39.59-.77.89-1.13.29-.35.56-.68.81-.99.26-.3.51-.59.73-.84.44-.51.77-.91,1.03-1.18.25-.27.38-.42.38-.42h3.65s.13.15.39.42c.26.27.59.67,1.03,1.18.22.26.46.54.72.84.25.31.52.64.81.99.29.36.58.73.89,1.13.31.4.64.82.96,1.25.32.44.66.89,1.01,1.36.33.47.68.95,1.03,1.46.72,1,1.39,2.05,2.13,3.14.71,1.09,1.39,2.22,2.03,3.36.64,1.14,1.19,2.3,1.79,3.47.57,1.16,1.53,2.32,2.53,3.47.48.57.95,1.14,1.29,1.7.34.56.56,1.11.6,1.66.12,1.09-.45,2.14-1.27,3.14-.82,1-1.84,1.94-3.09,2.81-1.18.87-2.57,1.67-3.96,2.38-.36.17-.68.35-1.04.51-.36.16-.71.32-1.05.48-.72.31-1.44.59-2.06.84-.59.26-1.29.48-1.84.68-.28.1-.54.19-.78.27-.24.08-.52.16-.73.23-.9.27-1.38.42-1.38.42h-3.65Z" style="fill: url(#linear-gradient); mix-blend-mode: multiply;"/>
        <path d="m104.65,90.24s-.47.17-1.36.47c-.21.07-.48.17-.72.25-.24.07-.51.15-.79.24-.56.17-1.26.39-1.88.53-.65.16-1.4.35-2.17.53-.36.07-.74.15-1.13.23-.39.08-.75.12-1.14.2-1.54.24-3.14.42-4.6.41-1.52.03-2.9-.13-4.15-.46-1.25-.32-2.33-.84-2.88-1.79-.28-.47-.43-1.05-.49-1.7-.05-.65,0-1.39.04-2.13.13-1.51.23-3.01,0-4.29-.2-1.29-.43-2.56-.59-3.86-.16-1.3-.26-2.61-.34-3.91-.04-1.32-.11-2.56-.12-3.79,0-.61-.02-1.2-.03-1.78,0-.58.01-1.15.02-1.7,0-.54.02-1.07.04-1.57.02-.51.02-.97.05-1.43.03-.46.05-.88.07-1.28.03-.4.06-.77.09-1.11.06-.67.09-1.19.14-1.56.04-.37.07-.57.07-.57l2.95-2.15s.19.04.56.11c.37.07.87.2,1.53.35.33.08.69.16,1.08.25.38.1.8.21,1.24.33.45.11.89.25,1.38.39.48.14.99.28,1.51.45.52.16,1.06.33,1.62.51.54.19,1.11.38,1.69.57,1.17.39,2.33.84,3.57,1.29,1.21.47,2.43.97,3.61,1.53,1.19.55,2.32,1.16,3.49,1.75,1.15.61,2.61.98,4.08,1.32.73.18,1.44.37,2.04.62.6.26,1.1.57,1.46.99.73.81.9,2,.82,3.29-.07,1.29-.35,2.66-.84,4.09-.44,1.4-1.1,2.87-1.8,4.25-.19.36-.34.68-.54,1.03-.19.35-.38.68-.56,1-.41.67-.82,1.32-1.18,1.89-.33.55-.75,1.14-1.08,1.63-.17.24-.33.47-.47.68-.14.21-.32.43-.46.61-.57.75-.87,1.14-.87,1.14l-2.95,2.15Z" style="fill: url(#linear-gradient-2); mix-blend-mode: multiply;"/>
        <path d="m123.47,66.26s-.29.41-.82,1.18c-.13.19-.29.42-.44.62-.15.2-.32.42-.5.66-.36.46-.79,1.05-1.21,1.53-.43.51-.92,1.11-1.44,1.71-.25.27-.51.55-.78.85-.27.29-.53.54-.81.83-1.1,1.1-2.29,2.18-3.49,3.04-1.21.91-2.43,1.6-3.63,2.06-1.2.48-2.38.69-3.38.24-.5-.22-.96-.59-1.39-1.09-.43-.5-.82-1.12-1.22-1.75-.78-1.3-1.59-2.57-2.52-3.47-.92-.93-1.86-1.82-2.75-2.78-.89-.95-1.75-1.96-2.57-2.96-.81-1.04-1.6-2.01-2.33-3-.37-.49-.72-.96-1.07-1.43-.34-.48-.67-.94-.98-1.38-.32-.44-.61-.88-.89-1.3-.28-.42-.55-.8-.8-1.19-.25-.38-.48-.74-.69-1.07-.21-.34-.4-.66-.58-.95-.35-.58-.62-1.02-.8-1.34-.18-.32-.28-.5-.28-.5l1.13-3.47s.18-.08.52-.24c.34-.16.82-.35,1.44-.61.31-.13.65-.27,1.02-.43.37-.14.77-.3,1.19-.46.43-.17.87-.32,1.35-.5.47-.17.97-.35,1.48-.52.51-.17,1.05-.35,1.61-.54.55-.17,1.12-.34,1.7-.53,1.17-.37,2.38-.69,3.65-1.06,1.25-.33,2.54-.64,3.82-.89,1.29-.25,2.56-.42,3.85-.63,1.28-.18,2.69-.74,4.08-1.33.69-.28,1.38-.55,2.02-.7.64-.15,1.23-.18,1.76-.06,1.07.23,1.9,1.09,2.59,2.18.7,1.09,1.28,2.35,1.72,3.81.46,1.39.79,2.96,1.04,4.5.06.4.12.75.17,1.15.04.39.09.78.13,1.14.07.79.11,1.55.16,2.22.06.64.06,1.37.08,1.96,0,.3.01.57.02.82,0,.25,0,.54,0,.77-.02.94-.03,1.44-.03,1.44l-1.13,3.47Z" style="fill: url(#linear-gradient-3); mix-blend-mode: multiply;"/>
        <path d="m124.6,35.79s0,.5.03,1.44c0,.23.01.51,0,.77,0,.25-.01.53-.02.83-.02.59-.02,1.32-.08,1.96-.05.67-.09,1.44-.16,2.22-.04.37-.09.75-.13,1.14-.04.4-.11.75-.17,1.15-.24,1.54-.57,3.11-1.04,4.5-.44,1.45-1.03,2.72-1.72,3.81-.69,1.1-1.52,1.96-2.59,2.18-.53.12-1.13.09-1.76-.06-.64-.15-1.32-.42-2.02-.7-1.39-.59-2.8-1.15-4.08-1.33-1.29-.21-2.57-.38-3.85-.63-1.28-.25-2.57-.55-3.82-.89-1.26-.37-2.48-.68-3.65-1.06-.58-.18-1.15-.36-1.7-.53-.56-.19-1.09-.37-1.61-.54-.51-.17-1.01-.35-1.48-.52-.47-.18-.92-.33-1.35-.5-.42-.17-.83-.32-1.19-.46-.37-.15-.72-.3-1.02-.43-.62-.26-1.1-.45-1.44-.62-.34-.16-.52-.24-.52-.24l-1.13-3.47s.09-.17.28-.5c.18-.33.46-.77.8-1.34.18-.29.37-.6.58-.95.21-.33.45-.69.69-1.07.25-.39.52-.77.8-1.19.28-.42.58-.86.89-1.29.31-.44.64-.9.98-1.38.34-.46.7-.94,1.07-1.43.73-.99,1.52-1.96,2.33-3,.82-1.01,1.68-2.01,2.57-2.96.89-.96,1.82-1.85,2.75-2.78.93-.9,1.74-2.17,2.52-3.47.39-.63.79-1.25,1.22-1.75.43-.49.89-.87,1.39-1.09,1-.45,2.18-.24,3.38.24,1.2.47,2.42,1.15,3.63,2.07,1.19.85,2.38,1.93,3.49,3.03.28.29.54.54.81.83.27.29.53.58.78.85.52.59,1.01,1.19,1.44,1.7.42.48.86,1.07,1.21,1.54.18.24.35.45.5.66.15.2.31.44.44.62.54.77.82,1.18.82,1.18l1.13,3.47Z" style="fill: url(#linear-gradient-4); mix-blend-mode: multiply;"/>
        <path d="m107.6,10.48s.3.4.87,1.15c.13.18.31.41.46.61.14.21.3.44.47.68.33.49.76,1.08,1.08,1.63.35.57.77,1.22,1.18,1.89.18.32.37.66.56,1,.2.35.35.67.54,1.03.71,1.39,1.37,2.86,1.8,4.25.5,1.44.77,2.8.84,4.09.08,1.29-.08,2.48-.82,3.29-.36.41-.86.73-1.46.99-.61.25-1.32.43-2.04.62-1.47.34-2.93.72-4.08,1.32-1.17.59-2.3,1.2-3.49,1.75-1.19.55-2.4,1.06-3.61,1.53-1.24.45-2.41.9-3.57,1.29-.58.2-1.14.39-1.69.57-.56.17-1.1.34-1.62.51-.51.17-1.02.31-1.51.45-.49.14-.94.28-1.38.39-.44.12-.85.23-1.24.33-.39.09-.75.18-1.08.26-.66.15-1.16.28-1.53.35-.36.07-.56.11-.56.11l-2.95-2.15s-.02-.2-.07-.56c-.05-.37-.08-.89-.14-1.56-.03-.34-.06-.7-.09-1.11-.02-.4-.04-.82-.07-1.28-.03-.46-.03-.93-.05-1.43-.02-.5-.04-1.03-.04-1.57,0-.54-.01-1.11-.02-1.69,0-.58.02-1.17.03-1.78,0-1.23.08-2.48.12-3.79.07-1.3.18-2.61.34-3.91.15-1.3.39-2.57.59-3.86.22-1.28.13-2.78,0-4.29-.05-.74-.1-1.48-.04-2.13.06-.65.21-1.23.49-1.7.55-.95,1.62-1.47,2.88-1.79,1.25-.33,2.63-.49,4.15-.46,1.46-.01,3.06.16,4.6.41.4.07.75.12,1.14.2.39.08.77.15,1.13.23.77.18,1.51.37,2.17.53.62.14,1.32.36,1.88.53.29.09.55.16.79.24.24.07.51.17.72.25.89.31,1.36.47,1.36.47l2.95,2.15Z" style="fill: url(#linear-gradient-5); mix-blend-mode: multiply;"/>
        <path d="m75.32,37.18s-.13-.15-.38-.42c-.26-.27-.59-.67-1.03-1.18-.22-.25-.46-.54-.73-.84-.25-.31-.52-.64-.81-.99-.29-.35-.57-.73-.89-1.13-.31-.4-.64-.81-.96-1.25-.32-.43-.66-.89-1.01-1.36-.33-.47-.67-.96-1.03-1.46-.72-1-1.39-2.05-2.13-3.14-.71-1.09-1.39-2.21-2.03-3.36-.64-1.14-1.19-2.3-1.79-3.47-.57-1.16-1.53-2.32-2.52-3.47-.48-.57-.95-1.14-1.29-1.7-.34-.56-.55-1.11-.6-1.66-.12-1.09.45-2.14,1.27-3.14.82-1,1.84-1.94,3.09-2.81,1.18-.87,2.57-1.67,3.96-2.38.36-.18.68-.35,1.04-.51.36-.16.71-.32,1.05-.48.72-.31,1.44-.59,2.06-.84.59-.25,1.29-.48,1.84-.68.28-.1.54-.19.78-.27.24-.08.51-.16.73-.23.9-.27,1.37-.42,1.37-.42h3.65s.48.14,1.38.42c.21.07.49.14.73.23.24.08.5.17.78.27.55.2,1.25.42,1.84.68.62.25,1.34.54,2.06.84.34.15.69.31,1.05.48.36.17.68.34,1.04.51,1.39.71,2.78,1.51,3.96,2.38,1.25.87,2.27,1.82,3.09,2.81.83,1,1.39,2.05,1.27,3.14-.05.54-.27,1.1-.6,1.66-.34.56-.81,1.13-1.29,1.7-1,1.14-1.96,2.31-2.53,3.47-.6,1.16-1.15,2.32-1.79,3.47-.63,1.14-1.32,2.27-2.03,3.36-.74,1.09-1.42,2.14-2.13,3.14-.35.5-.7.98-1.03,1.46-.35.47-.69.92-1.01,1.36-.32.44-.65.85-.96,1.25-.31.4-.59.77-.89,1.13-.29.35-.56.69-.81.99-.26.31-.51.59-.72.84-.44.51-.77.91-1.03,1.18-.25.27-.39.42-.39.42h-3.65Z" style="fill: url(#linear-gradient-6); mix-blend-mode: multiply;"/>
        <path d="m68.56,40.57s-.19-.04-.56-.11c-.37-.07-.87-.2-1.53-.35-.33-.08-.69-.16-1.08-.26-.38-.1-.79-.21-1.24-.33-.45-.11-.9-.25-1.38-.39-.48-.14-1-.29-1.51-.45-.52-.16-1.06-.33-1.62-.51-.54-.19-1.11-.38-1.68-.57-1.17-.39-2.33-.84-3.57-1.29-1.21-.47-2.43-.97-3.62-1.53-1.19-.55-2.32-1.16-3.49-1.75-1.14-.61-2.6-.98-4.08-1.32-.72-.18-1.44-.36-2.04-.62-.6-.26-1.1-.58-1.46-.99-.73-.81-.9-2-.82-3.29.08-1.29.35-2.65.84-4.09.44-1.39,1.1-2.86,1.81-4.25.19-.36.34-.68.54-1.03.2-.35.38-.68.57-1,.4-.67.82-1.32,1.17-1.89.33-.55.76-1.14,1.09-1.63.17-.24.33-.47.47-.68.14-.21.32-.43.46-.61.56-.75.87-1.15.87-1.15l2.95-2.15s.47-.16,1.36-.47c.21-.07.48-.17.72-.25.24-.07.51-.15.79-.24.56-.17,1.26-.39,1.88-.53.65-.16,1.4-.35,2.17-.53.36-.07.74-.15,1.13-.23.39-.08.75-.13,1.15-.2,1.54-.25,3.14-.42,4.6-.41,1.52-.03,2.91.13,4.15.46,1.25.32,2.33.84,2.88,1.79.28.47.43,1.05.49,1.7.05.65,0,1.39-.04,2.13-.13,1.51-.22,3.01,0,4.29.2,1.29.43,2.56.59,3.86.16,1.3.26,2.61.33,3.91.04,1.32.11,2.57.12,3.79,0,.61.02,1.21.02,1.78,0,.59-.01,1.15-.02,1.69,0,.54-.02,1.07-.04,1.57-.02.5-.03.98-.06,1.43-.02.46-.05.88-.07,1.28-.03.4-.06.77-.09,1.11-.06.67-.09,1.19-.14,1.56-.04.37-.07.56-.07.56l-2.95,2.15Z" style="fill: url(#linear-gradient-7); mix-blend-mode: multiply;"/>
        <path d="m65.07,47.28s-.18.08-.52.24c-.34.16-.82.35-1.44.62-.31.13-.65.27-1.03.43-.37.14-.77.3-1.19.46-.43.17-.87.32-1.35.5-.47.17-.97.35-1.49.52-.51.17-1.05.35-1.6.54-.55.17-1.12.35-1.7.53-1.17.37-2.38.69-3.65,1.06-1.25.34-2.54.64-3.82.89-1.29.25-2.56.42-3.85.63-1.28.18-2.68.74-4.08,1.33-.69.28-1.38.55-2.02.7-.64.15-1.23.18-1.77.06-1.07-.23-1.9-1.09-2.59-2.18-.7-1.09-1.28-2.35-1.72-3.81-.46-1.39-.79-2.96-1.04-4.5-.06-.4-.12-.75-.17-1.15-.04-.4-.09-.78-.13-1.14-.07-.78-.11-1.55-.16-2.22-.06-.64-.06-1.37-.08-1.96,0-.3-.01-.57-.02-.83,0-.25,0-.54,0-.77.02-.94.03-1.44.03-1.44l1.13-3.47s.29-.41.82-1.18c.13-.18.29-.42.44-.62.15-.2.32-.42.5-.66.36-.46.79-1.05,1.21-1.54.43-.51.92-1.11,1.44-1.7.25-.27.51-.55.78-.85.27-.3.53-.54.81-.83,1.1-1.1,2.29-2.18,3.49-3.03,1.21-.92,2.43-1.6,3.63-2.07,1.21-.48,2.38-.69,3.38-.24.5.21.96.59,1.39,1.09.43.5.82,1.12,1.22,1.75.78,1.3,1.59,2.57,2.52,3.47.92.93,1.85,1.81,2.75,2.78.89.96,1.75,1.96,2.57,2.96.81,1.04,1.6,2.01,2.33,3,.37.49.72.96,1.07,1.43.34.48.67.94.98,1.38.32.43.61.88.89,1.29.28.42.55.8.8,1.19.25.38.48.74.69,1.07.21.35.4.66.58.95.35.58.62,1.02.8,1.34.18.32.28.5.28.5l-1.13,3.47Z" style="fill: url(#linear-gradient-8); mix-blend-mode: multiply;"/>
        <path d="m66.2,54.77s-.1.17-.28.5c-.18.33-.46.76-.8,1.34-.17.29-.37.6-.58.95-.21.33-.45.69-.69,1.07-.25.39-.52.77-.8,1.19-.28.42-.58.86-.89,1.3-.32.44-.64.9-.98,1.38-.34.46-.7.94-1.07,1.43-.73.99-1.52,1.96-2.33,3-.82,1-1.68,2.01-2.57,2.96-.89.96-1.83,1.85-2.75,2.78-.93.9-1.74,2.17-2.52,3.47-.4.63-.79,1.25-1.22,1.75-.43.49-.89.87-1.39,1.09-1,.45-2.17.24-3.38-.24-1.2-.47-2.42-1.15-3.63-2.06-1.19-.85-2.38-1.93-3.49-3.04-.28-.29-.54-.54-.81-.83-.27-.29-.53-.58-.78-.85-.52-.6-1.01-1.19-1.44-1.71-.42-.48-.86-1.07-1.21-1.53-.18-.24-.35-.46-.5-.66-.15-.2-.31-.44-.44-.62-.54-.77-.82-1.18-.82-1.18l-1.13-3.47s0-.5-.03-1.44c0-.23-.01-.51,0-.77,0-.25.01-.53.02-.82.02-.59.02-1.32.08-1.96.05-.67.1-1.44.16-2.22.04-.37.09-.75.13-1.14.04-.4.11-.75.17-1.15.24-1.54.57-3.11,1.04-4.5.44-1.45,1.03-2.72,1.72-3.81.7-1.09,1.52-1.96,2.59-2.18.53-.12,1.13-.08,1.77.06.64.15,1.32.42,2.02.7,1.39.59,2.8,1.15,4.08,1.33,1.29.21,2.57.38,3.85.63,1.28.25,2.57.56,3.82.89,1.26.37,2.47.68,3.65,1.06.58.18,1.15.36,1.7.53.55.19,1.09.37,1.6.54.51.17,1.01.35,1.49.52.47.17.92.33,1.35.5.42.16.82.32,1.19.46.37.15.72.3,1.03.43.62.26,1.1.45,1.44.61.34.16.52.24.52.24l1.13,3.47Z" style="fill: url(#linear-gradient-9); mix-blend-mode: multiply;"/>
        <path d="m71.51,60.16s.02.2.07.57c.05.37.08.89.14,1.56.03.33.06.7.09,1.11.02.4.04.82.07,1.28.03.46.04.93.06,1.43.02.5.04,1.04.04,1.57,0,.54.01,1.11.02,1.7,0,.58-.02,1.17-.02,1.78,0,1.23-.08,2.48-.12,3.79-.07,1.3-.18,2.61-.33,3.91-.16,1.3-.39,2.57-.59,3.86-.22,1.28-.13,2.78,0,4.29.05.74.1,1.48.04,2.13-.06.65-.21,1.23-.49,1.7-.55.95-1.62,1.47-2.88,1.79-1.25.33-2.63.49-4.15.46-1.46.01-3.06-.16-4.6-.41-.4-.07-.75-.12-1.15-.2-.39-.08-.77-.16-1.13-.23-.77-.18-1.51-.37-2.17-.53-.62-.14-1.32-.37-1.88-.53-.29-.08-.55-.16-.79-.24-.24-.07-.51-.17-.72-.25-.88-.3-1.36-.47-1.36-.47l-2.95-2.15s-.3-.4-.87-1.14c-.13-.18-.31-.41-.46-.61-.14-.21-.3-.44-.47-.68-.33-.49-.76-1.08-1.09-1.63-.35-.57-.77-1.22-1.17-1.89-.18-.32-.37-.65-.57-1-.2-.35-.35-.67-.54-1.03-.71-1.39-1.37-2.86-1.81-4.25-.5-1.44-.77-2.8-.84-4.09-.08-1.29.08-2.48.82-3.29.36-.41.86-.73,1.46-.99.61-.25,1.32-.44,2.04-.62,1.48-.34,2.94-.71,4.08-1.32,1.17-.59,2.3-1.2,3.49-1.75,1.19-.55,2.41-1.06,3.62-1.53,1.24-.45,2.4-.9,3.57-1.29.58-.2,1.14-.39,1.68-.57.56-.17,1.1-.34,1.62-.51.51-.17,1.02-.31,1.51-.45.49-.14.93-.28,1.38-.39.44-.12.85-.23,1.24-.33.39-.09.75-.18,1.08-.25.66-.15,1.16-.28,1.53-.35.36-.07.56-.11.56-.11l2.95,2.15Z" style="fill: url(#linear-gradient-10); mix-blend-mode: multiply;"/>
      </g>
    </g>
  </g>
</svg>